<?xml version="1.0" standalone="no"?>
<!DOCTYPE svg PUBLIC "-//W3C//DTD SVG 20010904//EN"
 "http://www.w3.org/TR/2001/REC-SVG-20010904/DTD/svg10.dtd">
<svg version="1.0" xmlns="http://www.w3.org/2000/svg"
 width="268.000000pt" height="268.000000pt" viewBox="0 0 268.000000 268.000000"
 preserveAspectRatio="xMidYMid meet">
<metadata>
Created by potrace 1.14, written by Peter Selinger 2001-2017
</metadata>
<g transform="translate(0.000000,268.000000) scale(0.100000,-0.100000)"
fill="#000000" stroke="none">
<path d="M929 1647 c-1 -12 0 -32 1 -44 1 -17 -9 -26 -44 -41 -94 -42 -98
-137 -8 -190 l47 -27 1 -82 c2 -94 -4 -99 -63 -62 -27 17 -36 19 -48 9 -8 -7
-15 -16 -15 -19 0 -11 74 -50 101 -54 20 -3 24 -10 25 -43 2 -54 2 -53 22 -50
13 2 18 14 20 49 3 39 6 47 23 47 10 0 35 15 54 33 67 62 51 153 -35 197 l-40
20 0 70 c0 39 3 70 8 70 4 0 21 -9 39 -20 29 -17 34 -18 48 -4 8 9 15 17 15
20 0 7 -79 44 -94 44 -11 0 -16 13 -18 47 -2 35 -7 47 -20 49 -12 1 -18 -5
-19 -19z m-3 -176 c-1 -59 -9 -70 -36 -46 -25 22 -26 70 -2 84 31 19 38 12 38
-38z m81 -163 c36 -34 27 -94 -17 -118 -19 -10 -20 -7 -20 65 0 41 3 75 7 75
4 0 17 -10 30 -22z"/>
<path d="M240 1653 c-14 -2 -36 -12 -49 -22 -25 -19 -27 -32 -20 -155 4 -76
-9 -96 -63 -96 -23 0 -27 -4 -24 -22 2 -17 11 -24 34 -26 42 -4 61 -33 56 -85
-10 -108 -10 -123 -1 -144 10 -21 37 -36 90 -47 24 -6 27 -3 27 19 0 20 -5 25
-24 25 -42 0 -57 25 -50 84 14 114 13 128 -11 152 l-23 23 21 14 c22 15 25 40
14 148 -7 73 -3 81 46 93 18 4 27 13 27 26 0 11 -6 19 -12 19 -7 -1 -24 -4
-38 -6z"/>
<path d="M2345 1652 c-20 -14 -14 -32 13 -38 51 -12 53 -19 46 -124 l-7 -98
27 -17 27 -18 -23 -11 c-22 -11 -23 -17 -23 -119 0 -114 -5 -127 -51 -127 -15
0 -21 -6 -20 -20 0 -11 4 -20 9 -20 4 0 20 0 36 0 16 0 39 10 55 25 27 25 27
25 20 124 -6 93 -5 100 14 110 11 6 32 11 46 11 21 0 26 5 26 25 0 19 -5 25
-23 25 -12 0 -33 7 -46 16 -22 16 -23 20 -16 105 7 92 0 121 -33 137 -28 15
-66 22 -77 14z"/>
<path d="M1730 1508 c-35 -73 -95 -196 -132 -272 -68 -138 -72 -155 -32 -156
6 0 37 55 69 123 32 67 91 188 131 269 68 138 72 149 54 158 -10 5 -20 10 -22
10 -2 0 -33 -60 -68 -132z"/>
<path d="M2129 1566 c-1 -22 -1 -60 -2 -83 l0 -42 -28 14 c-59 31 -120 15
-158 -41 -20 -28 -24 -48 -25 -107 0 -45 5 -83 14 -101 38 -75 129 -95 184
-40 15 14 16 14 16 -5 0 -16 6 -21 25 -21 l25 0 0 229 0 229 -25 4 c-23 5 -25
2 -26 -36z m-26 -156 c25 -20 26 -25 23 -103 -2 -45 -4 -85 -5 -90 0 -4 -15
-16 -32 -26 -64 -39 -119 13 -119 113 0 108 65 159 133 106z"/>
<path d="M443 1355 c-18 -18 -33 -38 -33 -43 0 -21 36 -17 57 5 29 31 53 29
98 -7 49 -39 87 -39 126 -1 16 16 29 36 29 44 0 26 -27 26 -49 1 -27 -31 -58
-31 -92 2 -17 16 -41 27 -65 29 -31 3 -42 -1 -71 -30z"/>
<path d="M1272 1228 c-17 -17 -15 -63 4 -79 49 -41 114 14 79 67 -17 26 -62
33 -83 12z"/>
</g>
</svg>
