<svg height="24" role="presentation" width="24" xmlns="http://www.w3.org/2000/svg">
            <path
              clipRule="evenodd"
              d="M21.5 5.894a7.571 7.571 0 0 1-2.239.636 4.024 4.024 0 0 0 1.714-2.235 7.646 7.646 0 0 1-2.475.98A3.83 3.83 0 0 0 15.654 4c-2.516 0-4.366 2.433-3.797 4.959-3.239-.168-6.111-1.776-8.034-4.22-1.021 1.816-.53 4.19 1.206 5.393a3.78 3.78 0 0 1-1.765-.505c-.043 1.87 1.252 3.622 3.126 4.011-.548.155-1.15.19-1.76.07.495 1.604 1.934 2.771 3.641 2.804A7.642 7.642 0 0 1 2.5 18.185 10.757 10.757 0 0 0 8.476 20c7.237 0 11.326-6.334 11.079-12.015a8.101 8.101 0 0 0 1.945-2.09Z"
              fill="currentColor"
              fillRule="evenodd"
            />
          </svg>